toy_leg_sim_states
version=1
nRows=27
nColumns=17
inDegrees=yes

# SIMM Motion File Header:
name toy_leg_sim_states
datacolumns 17
datarows 27
otherdata 1
range 2.31105605 2.33253611
endheader
time	/jointset/ground_block/xRotation/value	/jointset/ground_block/xRotation/speed	/jointset/ground_block/yRotation/value	/jointset/ground_block/yRotation/speed	/jointset/ground_block/zRotation/value	/jointset/ground_block/zRotation/speed	/jointset/ground_block/xTranslation/value	/jointset/ground_block/xTranslation/speed	/jointset/ground_block/yTranslation/value	/jointset/ground_block/yTranslation/speed	/jointset/ground_block/zTranslation/value	/jointset/ground_block/zTranslation/speed	/jointset/pin1/pin1_rot/value	/jointset/pin1/pin1_rot/speed	/jointset/pin2/pin2_rot/value	/jointset/pin2/pin2_rot/speed
      2.31105605	      0.00000000	      0.00000000	      0.00000000	      0.00000000	   -275.90859011	    413.67065625	      1.04925525	      1.16254941	     -0.95058194	     -0.03512713	      0.00000000	      0.00000000	     93.67357734	   -342.70449950	      1.85010659	     -2.28816657
      2.31189015	      0.00000000	      0.00000000	      0.00000000	      0.00000000	   -275.56295909	    415.07970893	      1.05022478	      1.16218132	     -0.95061082	     -0.03410584	      0.00000000	      0.00000000	     93.38713694	   -344.11888259	      1.84817932	     -2.33316073
      2.31272425	      0.00000000	      0.00000000	      0.00000000	      0.00000000	   -275.21615474	    416.48405202	      1.05119400	      1.16180919	     -0.95063881	     -0.03300107	      0.00000000	      0.00000000	     93.09951991	   -345.52543328	      1.84621172	     -2.38641692
      2.31355835	      0.00000000	      0.00000000	      0.00000000	      0.00000000	   -274.86818099	    417.88366832	      1.05216291	      1.16143180	     -0.95066585	     -0.03181142	      0.00000000	      0.00000000	     92.81073232	   -346.92604532	      1.84419843	     -2.44120949
      2.31459409	      0.00000000	      0.00000000	      0.00000000	      0.00000000	   -274.43446591	    419.61502498	      1.05336560	      1.16095642	     -0.95069798	     -0.03021588	      0.00000000	      0.00000000	     92.45051127	   -348.65504771	      1.84163169	     -2.51941897
      2.31528356	      0.00000000	      0.00000000	      0.00000000	      0.00000000	   -274.14475448	    420.76349643	      1.05416594	      1.16063436	     -0.95071843	     -0.02908168	      0.00000000	      0.00000000	     92.20972564	   -349.80212740	      1.83987747	     -2.56926066
      2.31597304	      0.00000000	      0.00000000	      0.00000000	      0.00000000	   -273.85425233	    421.90870199	      1.05496606	      1.16030856	     -0.95073807	     -0.02789122	      0.00000000	      0.00000000	     91.96815083	   -350.94417841	      1.83808698	     -2.62495349
      2.31698975	      0.00000000	      0.00000000	      0.00000000	      0.00000000	   -273.42443682	    423.59145527	      1.05614552	      1.15981953	     -0.95076549	     -0.02603636	      0.00000000	      0.00000000	     91.61048835	   -352.62180533	      1.83537593	     -2.70821029
      2.31791826	      0.00000000	      0.00000000	      0.00000000	      0.00000000	   -273.03041647	    425.12197946	      1.05722221	      1.15936368	     -0.95078884	     -0.02424421	      0.00000000	      0.00000000	     91.28236653	   -354.14674673	      1.83282499	     -2.78794408
      2.31884677	      0.00000000	      0.00000000	      0.00000000	      0.00000000	   -272.63497780	    426.64651391	      1.05829848	      1.15889752	     -0.95081049	     -0.02236504	      0.00000000	      0.00000000	     90.95283151	   -355.66682942	      1.83019969	     -2.86472144
      2.31955934	      0.00000000	      0.00000000	      0.00000000	      0.00000000	   -272.33054770	    427.81241105	      1.05912414	      1.15853330	     -0.95082590	     -0.02086897	      0.00000000	      0.00000000	     90.69898073	   -356.82843644	      1.82813591	     -2.92849383
      2.32027191	      0.00000000	      0.00000000	      0.00000000	      0.00000000	   -272.02528809	    428.97475601	      1.05994954	      1.15816203	     -0.95084022	     -0.01933037	      0.00000000	      0.00000000	     90.44430301	   -357.98811184	      1.82602785	     -2.98798057
      2.32123589	      0.00000000	      0.00000000	      0.00000000	      0.00000000	   -271.61100904	    430.54153514	      1.06106574	      1.15764924	     -0.95085783	     -0.01718938	      0.00000000	      0.00000000	     90.09845512	   -359.55179031	      1.82310855	     -3.07028052
      2.32200829	      0.00000000	      0.00000000	      0.00000000	      0.00000000	   -271.27797729	    431.79220397	      1.06195974	      1.15722829	     -0.95087043	     -0.01543169	      0.00000000	      0.00000000	     89.82025576	   -360.80246796	      1.82071326	     -3.13057067
      2.32278068	      0.00000000	      0.00000000	      0.00000000	      0.00000000	   -270.94398117	    433.03865592	      1.06285341	      1.15679903	     -0.95088166	     -0.01364369	      0.00000000	      0.00000000	     89.54109162	   -362.04940264	      1.81827135	     -3.19302766
      2.32355308	      0.00000000	      0.00000000	      0.00000000	      0.00000000	   -270.60902392	    434.28087746	      1.06374675	      1.15636005	     -0.95089150	     -0.01183211	      0.00000000	      0.00000000	     89.26096507	   -363.29498487	      1.81578296	     -3.24905424
      2.32432547	      0.00000000	      0.00000000	      0.00000000	      0.00000000	   -270.27310882	    435.51885492	      1.06463975	      1.15591196	     -0.95089993	     -0.01000416	      0.00000000	      0.00000000	     88.97987743	   -364.53766727	      1.81325192	     -3.30494086
      2.32509787	      0.00000000	      0.00000000	      0.00000000	      0.00000000	   -269.93623915	    436.75257475	      1.06553239	      1.15545373	     -0.95090695	     -0.00816696	      0.00000000	      0.00000000	     88.69783053	   -365.77918482	      1.81067961	     -3.35449840
      2.32607413	      0.00000000	      0.00000000	      0.00000000	      0.00000000	   -269.50909698	    438.30580434	      1.06666013	      1.15486080	     -0.95091379	     -0.00584311	      0.00000000	      0.00000000	     88.33997062	   -367.34488929	      1.80737587	     -3.41553470
      2.32674460	      0.00000000	      0.00000000	      0.00000000	      0.00000000	   -269.21486916	    439.36855879	      1.06743429	      1.15444351	     -0.95091717	     -0.00425288	      0.00000000	      0.00000000	     88.09331602	   -368.42009241	      1.80507450	     -3.44845334
      2.32741507	      0.00000000	      0.00000000	      0.00000000	      0.00000000	   -268.91992988	    440.42807288	      1.06820817	      1.15401896	     -0.95091949	     -0.00267284	      0.00000000	      0.00000000	     87.84594116	   -369.49327993	      1.80275116	     -3.48159919
      2.32836462	      0.00000000	      0.00000000	      0.00000000	      0.00000000	   -268.50100936	    441.92304709	      1.06930368	      1.15340403	     -0.95092098	     -0.00046123	      0.00000000	      0.00000000	     87.49436615	   -371.01213308	      1.79942610	     -3.52005356
      2.32925217	      0.00000000	      0.00000000	      0.00000000	      0.00000000	   -268.10816270	    443.31448705	      1.07032712	      1.15281527	     -0.95092048	      0.00156835	      0.00000000	      0.00000000	     87.16444502	   -372.42973512	      1.79628829	     -3.55082274
      2.33013972	      0.00000000	      0.00000000	      0.00000000	      0.00000000	   -267.71408362	    444.70019032	      1.07135004	      1.15221223	     -0.95091821	      0.00355192	      0.00000000	      0.00000000	     86.83326624	   -373.84701896	      1.79312667	     -3.57028718
      2.33087082	      0.00000000	      0.00000000	      0.00000000	      0.00000000	   -267.38854816	    445.83730706	      1.07219223	      1.15170590	     -0.95091503	      0.00514489	      0.00000000	      0.00000000	     86.55952126	   -375.01213908	      1.79051082	     -3.58575733
      2.33160192	      0.00000000	      0.00000000	      0.00000000	      0.00000000	   -267.06218278	    446.97050574	      1.07303406	      1.15118989	     -0.95091070	      0.00669616	      0.00000000	      0.00000000	     86.28492455	   -376.17736574	      1.78788649	     -3.59225128
      2.33253611	      0.00000000	      0.00000000	      0.00000000	      0.00000000	   -266.64395215	    448.41277895	      1.07410918	      1.15051790	     -0.95090354	      0.00861106	      0.00000000	      0.00000000	     85.93280781	   -377.66390248	      1.78452864	     -3.59691732
